<svg width="187" height="40" viewBox="0 0 187 40" fill="none" xmlns="http://www.w3.org/2000/svg">
<path d="M19.4361 2.2461C15.9626 2.24475 12.5666 3.27354 9.67782 5.20236C6.78901 7.13118 4.5371 9.87338 3.20689 13.0821C1.87669 16.2909 1.52794 19.8221 2.20477 23.229C2.8816 26.636 4.5536 29.7657 7.00929 32.2224C9.46499 34.679 12.5941 36.3522 16.0008 37.0304C19.4075 37.7086 22.9388 37.3612 26.1481 36.0322C29.3573 34.7033 32.1004 32.4524 34.0304 29.5644C35.9603 26.6763 36.9904 23.2808 36.9904 19.8072C36.9901 15.151 35.1407 10.6855 31.8489 7.39244C28.5571 4.09936 24.0923 2.24826 19.4361 2.2461ZM32.2888 20.7661H24.1336C23.8907 21.9831 23.2005 23.0648 22.1993 23.7981C21.1981 24.5313 19.9584 24.8627 18.7249 24.727C17.4913 24.5913 16.3534 23.9983 15.5355 23.0649C14.7176 22.1316 14.2792 20.9256 14.3066 19.6849C14.334 18.4442 14.8254 17.2589 15.6837 16.3626C16.5421 15.4663 17.7051 14.9242 18.9435 14.8431C20.1818 14.7621 21.4056 15.148 22.3734 15.9248C23.3413 16.7015 23.9829 17.8128 24.1718 19.0393H32.282C32.511 19.0393 32.7306 19.1303 32.8925 19.2922C33.0544 19.4541 33.1454 19.6737 33.1454 19.9027C33.1454 20.1317 33.0544 20.3513 32.8925 20.5132C32.7306 20.6751 32.511 20.7661 32.282 20.7661H32.2888Z" fill="white"/>
<path d="M178.419 19.9271C179.74 19.9271 180.638 20.77 180.919 22.1176H175.776C176.057 20.7414 177.069 19.9271 178.419 19.9271ZM185.19 23.4107C185.19 19.3365 182.353 16.4408 178.474 16.4408C174.316 16.4408 171.393 19.3924 171.393 23.5512C171.393 27.8231 174.427 30.6888 178.587 30.6888C181.706 30.6888 183.616 29.6495 184.769 28.216L182.24 25.6244C181.432 26.5538 180.267 27.0954 179.036 27.1139C177.35 27.1139 176.035 26.2955 175.749 24.7269H185.105C185.134 24.4446 185.19 23.7981 185.19 23.4052V23.4107ZM164.031 30.4365H168.443V20.2367H171.057V16.6904H168.443V14.7004C168.443 13.6092 168.948 13.2109 169.735 13.2109C170.129 13.2109 170.86 13.4073 171.449 13.7169L172.268 10.5403C171.79 10.2034 170.385 9.47363 168.559 9.47363C165.805 9.47363 164.035 11.1309 164.035 14.5312V16.6945H162.715V20.2408H164.035L164.031 30.4365ZM154.06 26.8111C152.318 26.8111 151.11 25.5194 151.11 23.5798C151.11 21.613 152.374 20.3199 154.06 20.3199C155.697 20.3199 156.954 21.6962 156.954 23.5798C156.954 25.5467 155.634 26.8111 154.06 26.8111ZM153.134 30.6888C154.791 30.6888 156.027 30.1269 156.927 28.9757L156.983 29.003V30.4365H161.171V16.6945H156.758V18.128L156.702 18.1567C155.754 17.0502 154.364 16.4216 152.908 16.4408C149.361 16.4408 146.641 19.3638 146.641 23.5798C146.641 27.8231 149.369 30.6888 153.134 30.6888ZM138.267 30.6888C141.584 30.6888 145.601 29.003 145.601 24.3095C145.601 20.4604 142.904 19.5602 139.391 18.2126C137.227 17.3697 136.498 16.8636 136.526 15.9075C136.526 14.9527 137.229 14.3635 138.381 14.3635C139.505 14.3635 140.741 14.8968 142.455 16.2444L145.097 12.8167C143.188 11.18 140.798 10.1747 138.185 10.2252C134.475 10.2811 131.638 12.7813 131.638 16.0971C131.638 20.0321 134.674 21.4657 137.707 22.5077C139.957 23.2661 140.658 23.7435 140.658 24.8401C140.658 25.739 139.984 26.526 138.41 26.526C137.034 26.526 135.207 25.8235 133.691 24.165L130.935 27.5094C133.071 29.7013 135.709 30.6847 138.269 30.6847L138.267 30.6888ZM118.684 30.6847C122.45 30.6847 124.276 28.8297 124.276 26.2723C124.276 23.5757 122.619 22.7887 119.583 21.7494C118.207 21.272 117.701 20.9624 117.701 20.5395C117.701 20.0062 118.29 19.7825 118.792 19.7825C119.719 19.7825 120.899 20.2599 121.855 21.2147L123.935 18.1526C122.333 16.9727 120.816 16.4367 118.736 16.4367C115.872 16.4367 113.594 18.0394 113.594 20.8219C113.594 23.4625 115.617 24.5864 117.922 25.2889C119.636 25.8235 120.058 26.1073 120.058 26.5546C120.058 27.0593 119.608 27.373 118.736 27.373C117.472 27.373 116.292 26.867 115.139 25.8276L113.086 28.6729C114.603 30.0218 116.514 30.6956 118.679 30.6956L118.684 30.6847ZM107.159 30.4433H111.542V16.6945H107.157L107.159 30.4433ZM109.349 14.9882C110.867 14.9882 111.991 13.897 111.991 12.458C111.991 11.0818 110.867 9.98512 109.349 9.98512C107.831 9.98512 106.73 11.1036 106.73 12.4512C106.73 13.8847 107.822 14.9813 109.344 14.9813L109.349 14.9882ZM99.7386 30.6888C103.505 30.6888 105.331 28.8338 105.331 26.2764C105.331 23.5798 103.672 22.7928 100.639 21.7535C99.2613 21.2761 98.7552 20.9664 98.7552 20.5436C98.7552 20.0103 99.3458 19.7866 99.8464 19.7866C100.773 19.7866 101.954 20.264 102.909 21.2188L104.987 18.1567C103.386 16.9768 101.869 16.4408 99.7891 16.4408C96.9248 16.4408 94.6469 18.0435 94.6469 20.826C94.6469 23.4666 96.6697 24.5905 98.9735 25.293C100.689 25.8276 101.109 26.1113 101.109 26.5587C101.109 27.0634 100.661 27.3771 99.7891 27.3771C98.5247 27.3771 97.3449 26.8711 96.1923 25.8317L94.1464 28.6702C95.6631 30.0191 97.5754 30.6929 99.7386 30.6929V30.6888ZM85.998 26.8111C84.2548 26.8111 82.9973 25.4062 82.9973 23.5798C82.9973 21.6962 84.2344 20.3472 85.998 20.3472C87.7111 20.3472 88.9769 21.6689 88.9769 23.5798C88.9769 25.4621 87.6566 26.8111 85.998 26.8111ZM85.998 30.6888C90.3259 30.6888 93.4166 27.7945 93.4166 23.5798C93.4166 19.3365 90.3259 16.4408 85.998 16.4408C81.5583 16.4408 78.5507 19.3924 78.5507 23.5798C78.5507 27.7386 81.5583 30.6888 85.998 30.6888ZM63.4338 30.4365H67.8163V23.5239C67.8163 21.3879 68.8283 20.3472 70.3464 20.3472C71.7786 20.3472 72.5383 20.9937 72.5383 23.2702V30.4365H76.9221V22.2022C76.9221 17.847 74.8421 16.4408 72.0037 16.4408C70.4194 16.4145 68.9055 17.095 67.8736 18.2972H67.8163V16.6945H63.4338V30.4365ZM53.1481 30.6602C56.2403 30.6602 59.2737 29.6208 61.1001 28.216V19.2519H52.7267V23.1297H56.6044V25.4907C55.5478 26.0771 54.3565 26.3776 53.1481 26.3623C49.7478 26.3623 47.7536 23.7203 47.7536 20.4877C47.7536 16.7791 50.1147 14.6144 52.9517 14.6144C54.7417 14.6088 56.4599 15.3172 57.7256 16.5826L61.0401 13.7729C58.9941 11.4118 55.842 10.2034 52.9476 10.2034C46.5697 10.2034 42.8311 14.7045 42.8311 20.4877C42.8311 26.9802 47.384 30.6602 53.144 30.6602" fill="white"/>
</svg>
