<svg width="317" height="53" viewBox="0 0 317 53" fill="none" xmlns="http://www.w3.org/2000/svg">
<rect x="0.798828" y="0.904297" width="52.7674" height="51.9585" rx="9" fill="#041223"/>
<path d="M27.1826 10.9043C18.1353 10.9043 10.7988 18.2394 10.7988 27.2881C10.7988 34.527 15.4933 40.6682 22.0031 42.8347C22.8219 42.9863 23.1225 42.4793 23.1225 42.0465C23.1225 41.6559 23.1072 40.3651 23.1003 38.9961C18.5422 39.9872 17.5804 37.0631 17.5804 37.0631C16.8351 35.1693 15.7613 34.6659 15.7613 34.6659C14.2749 33.6489 15.8734 33.6698 15.8734 33.6698C17.5186 33.7854 18.3849 35.3582 18.3849 35.3582C19.8462 37.8629 22.2177 37.1387 23.1526 36.7202C23.2996 35.6612 23.7243 34.9385 24.1928 34.5294C20.5538 34.115 16.7282 32.7102 16.7282 26.4324C16.7282 24.6438 17.3683 23.1821 18.4164 22.0348C18.2463 21.6221 17.6855 19.9557 18.5751 17.699C18.5751 17.699 19.9509 17.2586 23.0818 19.3784C24.3886 19.0153 25.7902 18.8333 27.1826 18.8272C28.575 18.8333 29.9776 19.0153 31.287 19.3784C34.4142 17.2586 35.788 17.699 35.788 17.699C36.6798 19.9557 36.1188 21.6221 35.9487 22.0348C36.9991 23.1821 37.6348 24.6436 37.6348 26.4324C37.6348 32.7251 33.802 34.1108 30.1538 34.5163C30.7414 35.0247 31.265 36.0219 31.265 37.5503C31.265 39.7424 31.246 41.5068 31.246 42.0465C31.246 42.4825 31.5409 42.9934 32.3715 42.8325C38.8777 40.6636 43.5662 34.5245 43.5662 27.2881C43.5662 18.2394 36.2308 10.9043 27.1826 10.9043Z" fill="white"/>
<path d="M16.9349 34.2436C16.8989 34.325 16.7707 34.3494 16.6541 34.2936C16.5353 34.2402 16.4685 34.1292 16.507 34.0474C16.5424 33.9637 16.6706 33.9403 16.7892 33.9965C16.9083 34.0499 16.9762 34.1619 16.9349 34.2436ZM17.7408 34.9627C17.6627 35.0352 17.5099 35.0015 17.4062 34.887C17.2991 34.7728 17.279 34.6201 17.3583 34.5465C17.4389 34.4742 17.587 34.508 17.6944 34.6223C17.8016 34.7378 17.8224 34.8896 17.7407 34.9628L17.7408 34.9627ZM18.2937 35.8827C18.1933 35.9525 18.029 35.8871 17.9277 35.7414C17.8273 35.5958 17.8273 35.421 17.9298 35.351C18.0316 35.281 18.1933 35.3439 18.2961 35.4885C18.3963 35.6367 18.3963 35.8114 18.2936 35.8829L18.2937 35.8827ZM19.2287 36.9483C19.1389 37.0473 18.9477 37.0208 18.8076 36.8856C18.6645 36.7535 18.6245 36.5661 18.7146 36.467C18.8054 36.3678 18.9978 36.3957 19.1389 36.5297C19.2811 36.6615 19.3245 36.8504 19.2288 36.9483H19.2287ZM20.437 37.3081C20.3976 37.4364 20.2133 37.4947 20.0278 37.4402C19.8425 37.3841 19.7212 37.2337 19.7586 37.1041C19.7971 36.9749 19.9822 36.9142 20.1691 36.9725C20.3542 37.0284 20.4757 37.1776 20.4372 37.3081H20.437ZM21.8125 37.4606C21.8171 37.5958 21.6597 37.7079 21.4649 37.7103C21.2689 37.7146 21.1105 37.6052 21.1084 37.4723C21.1084 37.3359 21.2622 37.2249 21.4581 37.2216C21.6529 37.2178 21.8125 37.3264 21.8125 37.4606ZM23.1635 37.4089C23.1868 37.5407 23.0514 37.6761 22.858 37.7121C22.6678 37.7468 22.4918 37.6655 22.4675 37.5348C22.4439 37.3996 22.5819 37.2643 22.7717 37.2292C22.9654 37.1956 23.1388 37.2748 23.1635 37.4089Z" fill="white"/>
<rect x="75.5664" y="0.904297" width="59.3697" height="52" rx="9" fill="#041223"/>
<path d="M85.5664 39.2194C89.0573 41.5467 93.324 42.9043 97.9785 42.9043C112.912 42.9043 121.445 30.2982 120.863 18.8558C122.415 17.6922 123.772 16.3346 124.936 14.7831C123.579 15.3649 122.027 15.9467 120.282 16.1407C122.027 15.171 123.191 13.6194 123.772 11.6801C122.221 12.6498 120.475 13.2316 118.73 13.6194C117.179 11.874 115.045 10.9043 112.718 10.9043C107.675 10.9043 103.797 15.7528 104.96 20.7952C98.1725 20.4073 92.3543 17.3043 88.2816 12.4558C86.1482 15.9467 87.1179 20.7952 90.8028 23.1225C89.4452 23.1225 88.2816 22.7346 87.1179 22.1528C87.1179 25.8376 89.6391 29.3285 93.5179 30.1043C92.3543 30.4922 91.1906 30.4922 89.8331 30.2982C90.8028 33.5952 93.9058 35.9225 97.3967 35.9225C94.0997 38.6376 89.8331 39.8013 85.5664 39.2194Z" fill="white"/>
<rect x="156.936" y="0.904297" width="61.9627" height="51.9735" rx="9" fill="#041223"/>
<path d="M202.513 13.6047C207.252 20.5726 209.592 28.4321 208.718 37.4803C208.714 37.5186 208.694 37.5537 208.662 37.5768C205.074 40.212 201.596 41.8113 198.168 42.8719C198.141 42.88 198.113 42.8796 198.086 42.8706C198.06 42.8617 198.037 42.8447 198.021 42.8221C197.229 41.72 196.509 40.5582 195.879 39.3382C195.842 39.2663 195.875 39.1797 195.95 39.1514C197.093 38.7208 198.18 38.2046 199.225 37.5936C199.307 37.5453 199.313 37.4273 199.237 37.3706C199.015 37.2059 198.795 37.0328 198.585 36.8597C198.545 36.8277 198.492 36.8215 198.448 36.843C191.661 39.977 184.226 39.977 177.359 36.843C177.314 36.823 177.261 36.8298 177.223 36.8613C177.013 37.0344 176.793 37.2059 176.573 37.3706C176.497 37.4273 176.503 37.5453 176.586 37.5936C177.632 38.1931 178.718 38.7208 179.86 39.1535C179.934 39.1818 179.969 39.2663 179.932 39.3382C179.315 40.5598 178.596 41.7216 177.789 42.8237C177.754 42.8682 177.696 42.8887 177.642 42.8719C174.23 41.8113 170.752 40.212 167.164 37.5768C167.134 37.5537 167.112 37.517 167.109 37.4787C166.378 29.6522 167.868 21.7276 173.308 13.6031C173.321 13.5816 173.341 13.5648 173.364 13.5549C176.041 12.3264 178.908 11.4226 181.906 10.9065C181.96 10.8981 182.015 10.9233 182.043 10.9715C182.413 11.6272 182.837 12.468 183.123 13.1552C186.282 12.6726 189.491 12.6726 192.716 13.1552C193.003 12.4827 193.411 11.6272 193.78 10.9715C193.793 10.9476 193.813 10.9284 193.838 10.9168C193.863 10.9051 193.89 10.9015 193.917 10.9065C196.916 11.4242 199.784 12.328 202.458 13.5549C202.482 13.5648 202.501 13.5816 202.513 13.6047ZM184.729 28.4856C184.762 26.1719 183.075 24.2574 180.958 24.2574C178.857 24.2574 177.187 26.1551 177.187 28.4856C177.187 30.8156 178.891 32.7133 180.958 32.7133C183.058 32.7133 184.729 30.8156 184.729 28.4856ZM198.672 28.4856C198.705 26.1719 197.018 24.2574 194.901 24.2574C192.801 24.2574 191.13 26.1551 191.13 28.4856C191.13 30.8156 192.834 32.7133 194.901 32.7133C197.018 32.7133 198.672 30.8156 198.672 28.4856Z" fill="white"/>
<rect x="240.898" y="0.904297" width="76.101" height="51.8614" rx="9" fill="#041223"/>
<path d="M266.721 10.9043C275.459 10.9043 282.543 18.0372 282.543 26.8352C282.543 35.6334 275.459 42.7657 266.721 42.7657C257.983 42.7657 250.898 35.6334 250.898 26.8352C250.898 18.0374 257.982 10.9043 266.721 10.9043ZM291.988 11.8374C296.357 11.8374 299.899 18.5516 299.899 26.8352H299.9C299.9 35.1169 296.358 41.833 291.989 41.833C287.62 41.833 284.078 35.1169 284.078 26.8352C284.078 18.5538 287.619 11.8374 291.988 11.8374H291.988ZM304.217 13.3997C305.753 13.3997 306.999 19.415 306.999 26.8354C306.999 34.2535 305.754 40.2712 304.217 40.2712C302.68 40.2712 301.435 34.2552 301.435 26.8354C301.435 19.4154 302.681 13.3997 304.217 13.3997Z" fill="white"/>
</svg>
